<svg width="1920" height="1080" viewBox="0 0 1920 1080" fill="none" xmlns="http://www.w3.org/2000/svg">
<g clip-path="url(#clip0_165_2)">
<path d="M1920 0H0V1080H1920V0Z" fill="#F6E7C8"/>
<path d="M1920 243.544V238.544H1740.84V0H1735.84V238.544H1429.51V0H1424.51V238.544H1118.17V0H1113.17V238.544H806.831V0H801.831V238.544H495.495V0H490.495V238.544H184.158V0H179.158V238.544H0V243.544H179.158V537.5H0V542.5H179.158V836.456H0V841.456H179.158V1080H184.158V841.456H490.495V1080H495.495V841.456H801.832V1080H806.832V841.456H1113.17V1080H1118.17V841.456H1424.51V1080H1429.51V841.456H1735.84V1080H1740.84V841.456H1920V836.456H1740.84V542.5H1920V537.5H1740.84V243.544H1920ZM1424.51 243.544V537.5H1118.17V243.544H1424.51ZM1113.17 243.544V537.5H806.831V243.544H1113.17ZM801.831 243.544V537.5H495.495V243.544H801.831ZM184.158 243.544H490.495V537.5H184.158V243.544ZM184.158 836.456V542.5H490.495V836.456H184.158ZM495.495 836.456V542.5H801.832V836.456H495.495ZM806.831 836.456V542.5H1113.17V836.456H806.831ZM1118.17 836.456V542.5H1424.51V836.456H1118.17ZM1735.84 836.456H1429.51V542.5H1735.84V836.456ZM1735.84 537.5H1429.51V243.544H1735.84V537.5Z" fill="#F1DDB5"/>
<path d="M1872.81 977.84H1376.86V671.149C1376.86 661.674 1384.54 653.993 1394.02 653.993H1855.66C1865.13 653.993 1872.81 661.674 1872.81 671.149V977.84Z" fill="#677446"/>
<path d="M1835.07 691.736H1724.04V940.096H1835.07V691.736Z" fill="#5C6E43"/>
<path d="M1708.55 691.736H1414.6V940.096H1708.55V691.736Z" fill="#5C6E43"/>
<path d="M1581.18 691.736L1414.6 858.311V935.071L1657.94 691.736H1581.18Z" fill="#CBCAFA"/>
<path d="M1708.55 704.142L1472.6 940.098H1498.67L1708.55 730.216V704.142Z" fill="#CBCAFA"/>
<path d="M1761.45 766.487H1738.29V776.352H1761.45V766.487Z" fill="#677446"/>
<path d="M1791.14 766.487H1767.97V776.352H1791.14V766.487Z" fill="#677446"/>
<path d="M1820.82 766.487H1797.66V776.352H1820.82V766.487Z" fill="#677446"/>
<path d="M1761.45 782.798H1738.29V792.663H1761.45V782.798Z" fill="#677446"/>
<path d="M1791.14 782.798H1767.97V792.663H1791.14V782.798Z" fill="#677446"/>
<path d="M1820.82 782.798H1797.66V792.663H1820.82V782.798Z" fill="#677446"/>
<path d="M1761.45 799.108H1738.29V808.973H1761.45V799.108Z" fill="#677446"/>
<path d="M1791.14 799.108H1767.97V808.973H1791.14V799.108Z" fill="#677446"/>
<path d="M1820.82 799.108H1797.66V808.973H1820.82V799.108Z" fill="#677446"/>
<path d="M1761.45 815.419H1738.29V825.284H1761.45V815.419Z" fill="#677446"/>
<path d="M1791.14 815.419H1767.97V825.284H1791.14V815.419Z" fill="#677446"/>
<path d="M1820.82 815.419H1797.66V825.284H1820.82V815.419Z" fill="#677446"/>
<path d="M1820.82 709.258H1738.29V756.643H1820.82V709.258Z" fill="#677446"/>
<path d="M1920 998.322H766.6V1080H1920V998.322Z" fill="#9D5747"/>
<path d="M1920 977.427H750.513V998.323H1920V977.427Z" fill="#9D5747"/>
<path d="M1920 998.322H766.6V1029.54H1920V998.322Z" fill="#764441"/>
<path d="M1205.16 998.322H1201.36V1080H1205.16V998.322Z" fill="#6A3D3E"/>
<path d="M1359.85 998.322H1356.05V1080H1359.85V998.322Z" fill="#6A3D3E"/>
<path d="M1050.47 998.322H1046.67V1080H1050.47V998.322Z" fill="#6A3D3E"/>
<path d="M895.786 998.322H891.984V1080H895.786V998.322Z" fill="#6A3D3E"/>
<path d="M1514.54 998.322H1510.74V1080H1514.54V998.322Z" fill="#6A3D3E"/>
<path d="M1669.23 998.322H1665.43V1080H1669.23V998.322Z" fill="#6A3D3E"/>
<path d="M1823.92 998.322H1820.12V1080H1823.92V998.322Z" fill="#6A3D3E"/>
<path d="M1205.16 998.322H1201.36V1029.54H1205.16V998.322Z" fill="#553840"/>
<path d="M1359.85 998.322H1356.05V1029.54H1359.85V998.322Z" fill="#553840"/>
<path d="M1050.47 998.322H1046.67V1029.54H1050.47V998.322Z" fill="#553840"/>
<path d="M895.786 998.322H891.984V1029.54H895.786V998.322Z" fill="#553840"/>
<path d="M1514.54 998.322H1510.74V1029.54H1514.54V998.322Z" fill="#553840"/>
<path d="M1669.23 998.322H1665.43V1029.54H1669.23V998.322Z" fill="#553840"/>
<path d="M1823.92 998.322H1820.12V1029.54H1823.92V998.322Z" fill="#553840"/>
<path d="M1162.68 959.828C1173.91 958.336 1183.21 947.8 1183.31 936.473C1181.76 941.444 1177.54 941.266 1172.36 941.8C1167.18 942.334 1161.74 941.787 1156.96 943.852C1154.62 944.863 1152.58 946.45 1150.34 947.677C1148.11 948.903 1145.5 949.779 1143.02 949.185C1140.54 948.59 1138.41 946.075 1139 943.595C1139.51 941.429 1141.69 940.177 1143.37 938.712C1147.57 935.044 1149.1 928.633 1147.02 923.46C1142.03 929.453 1135.26 934.133 1128.62 938.219C1123.3 941.492 1117.55 944.068 1111.58 945.906C1083.67 954.498 1051.12 945.327 1031.8 923.428C1030.82 931.156 1034.24 939.248 1040.42 943.983C1037.69 946.728 1032.9 946.791 1029.19 945.677C1025.48 944.563 1022.27 942.26 1018.96 940.248C1015.65 938.236 1011.99 936.44 1008.12 936.535C1004.01 936.635 1000.23 938.849 996.147 939.317C989.805 940.045 983.227 935.952 981.079 929.941C979.527 937.008 983.343 944.899 990.127 947.415C977.184 949.715 962.627 944.682 954.241 934.558C954.386 943.034 961.617 950.497 969.211 954.266C976.805 958.035 985.478 958.859 993.934 959.464C1033.49 962.295 1073.3 961.669 1112.75 957.595C1128.15 956.003 1147.34 961.866 1162.68 959.828Z" fill="#E17139"/>
<path d="M937.643 964.814H1208.66V953.945H937.643V964.814Z" fill="#543741"/>
<path d="M919.702 977.426H1363.04V964.814H919.702V977.426Z" fill="#633D3E"/>
<path d="M1312.78 954.952V947.506H1320.22V954.952H1338.39V960.387H1294.61V954.952H1312.78Z" fill="#423117"/>
<path d="M1294.61 964.814H1338.39V960.386H1294.61V964.814Z" fill="#5C6E43"/>
<path d="M1260.28 954.952V947.506H1267.72V954.952H1285.89V960.387H1242.11V954.952H1260.28Z" fill="#423117"/>
<path d="M1242.11 964.814H1285.89V960.386H1242.11V964.814Z" fill="#5C6E43"/>
<path d="M1363.46 340.419H939.334V373.633H1363.46V340.419Z" fill="#E69695"/>
<path d="M984.81 319.453C977.547 319.453 971.728 325.47 971.97 332.729L978.137 517.364H991.482L997.649 332.729C997.892 325.47 992.074 319.453 984.81 319.453ZM989.527 341.945C989.527 344.547 987.418 346.657 984.815 346.657C982.212 346.657 980.103 344.548 980.103 341.945V334.521C980.103 331.919 982.212 329.809 984.815 329.809C987.418 329.809 989.527 331.919 989.527 334.521V341.945Z" fill="#423117"/>
<path d="M984.81 504.319C963.835 504.319 946.831 521.323 946.831 542.298V597.41H1022.79V542.298C1022.79 521.322 1005.78 504.319 984.81 504.319ZM960.716 583.897C960.716 585.79 959.182 587.324 957.289 587.324C955.396 587.324 953.862 585.79 953.862 583.897V533.446C953.862 531.554 955.396 530.019 957.289 530.019C959.182 530.019 960.716 531.553 960.716 533.446V583.897ZM974.564 583.897C974.564 585.79 973.03 587.324 971.137 587.324C969.244 587.324 967.71 585.79 967.71 583.897V533.446C967.71 531.554 969.244 530.019 971.137 530.019C973.029 530.019 974.564 531.553 974.564 533.446V583.897ZM988.412 583.897C988.412 585.79 986.878 587.324 984.985 587.324C983.092 587.324 981.558 585.79 981.558 583.897V533.446C981.558 531.554 983.092 530.019 984.985 530.019C986.877 530.019 988.412 531.553 988.412 533.446V583.897ZM1002.26 583.897C1002.26 585.79 1000.73 587.324 998.833 587.324C996.94 587.324 995.406 585.79 995.406 583.897V533.446C995.406 531.554 996.94 530.019 998.833 530.019C1000.73 530.019 1002.26 531.553 1002.26 533.446V583.897ZM1016.11 583.897C1016.11 585.79 1014.57 587.324 1012.68 587.324C1010.79 587.324 1009.25 585.79 1009.25 583.897V533.446C1009.25 531.554 1010.79 530.019 1012.68 530.019C1014.57 530.019 1016.11 531.553 1016.11 533.446V583.897Z" fill="#423117"/>
<path d="M1090.47 319.453C1083.21 319.453 1077.39 325.47 1077.63 332.729L1083.8 517.364H1097.14L1103.31 332.729C1103.55 325.47 1097.74 319.453 1090.47 319.453ZM1095.19 341.945C1095.19 344.547 1093.08 346.657 1090.48 346.657C1087.87 346.657 1085.76 344.548 1085.76 341.945V334.521C1085.76 331.919 1087.87 329.809 1090.48 329.809C1093.08 329.809 1095.19 331.919 1095.19 334.521V341.945Z" fill="#423117"/>
<path d="M1090.47 502.82C1066.76 502.82 1047.54 522.042 1047.54 545.753C1047.54 569.464 1066.76 588.686 1090.47 588.686C1114.18 588.686 1133.41 569.464 1133.41 545.753C1133.4 522.042 1114.18 502.82 1090.47 502.82ZM1097.26 516.229C1097.69 514.877 1099.14 514.134 1100.49 514.568C1107 516.659 1112.83 520.863 1116.9 526.407C1117.74 527.552 1117.49 529.16 1116.34 529.999C1115.89 530.335 1115.35 530.497 1114.83 530.497C1114.04 530.497 1113.26 530.133 1112.75 529.447C1109.32 524.77 1104.41 521.224 1098.92 519.462C1097.57 519.028 1096.83 517.581 1097.26 516.229ZM1100.93 527.495C1102.16 528.202 1102.59 529.772 1101.88 531.003C1101.17 532.235 1099.6 532.659 1098.37 531.952C1093.56 529.19 1087.28 529.208 1082.48 532.001C1082.08 532.238 1081.63 532.351 1081.19 532.351C1080.31 532.351 1079.45 531.893 1078.97 531.074C1078.26 529.847 1078.67 528.274 1079.9 527.559C1086.25 523.857 1094.55 523.833 1100.93 527.495ZM1063.93 526.568C1067.96 521 1073.76 516.761 1080.26 514.63C1081.61 514.187 1083.06 514.923 1083.51 516.271C1083.95 517.62 1083.21 519.072 1081.86 519.514C1076.38 521.31 1071.49 524.886 1068.09 529.582C1067.59 530.276 1066.81 530.645 1066.01 530.645C1065.49 530.645 1064.96 530.487 1064.51 530.156C1063.35 529.324 1063.1 527.717 1063.93 526.568ZM1067.6 565.607C1067.14 565.941 1066.61 566.101 1066.08 566.101C1065.29 566.101 1064.51 565.736 1064.01 565.047C1059.91 559.435 1057.74 552.786 1057.72 545.819C1057.72 544.399 1058.87 543.246 1060.29 543.244C1060.29 543.244 1060.29 543.244 1060.29 543.244C1061.71 543.244 1062.86 544.392 1062.86 545.809C1062.88 551.683 1064.71 557.287 1068.16 562.015C1069 563.163 1068.74 564.77 1067.6 565.607ZM1069.43 545.797C1069.43 544.377 1070.58 543.224 1072 543.222C1072 543.222 1072 543.222 1072 543.222C1073.42 543.222 1074.57 544.369 1074.57 545.787C1074.58 551.441 1077.64 556.709 1082.54 559.539C1083.77 560.248 1084.19 561.82 1083.48 563.049C1083.01 563.874 1082.14 564.336 1081.26 564.336C1080.82 564.336 1080.38 564.225 1079.97 563.991C1073.49 560.249 1069.45 553.278 1069.43 545.797ZM1100.62 576.898C1097.35 577.961 1093.94 578.501 1090.47 578.501C1087.03 578.501 1083.63 577.968 1080.39 576.918C1079.04 576.481 1078.3 575.032 1078.73 573.682C1079.17 572.332 1080.62 571.592 1081.97 572.027C1087.46 573.803 1093.54 573.796 1099.03 572.01C1100.37 571.568 1101.83 572.307 1102.27 573.658C1102.7 575.009 1101.97 576.459 1100.62 576.898ZM1111.51 545.693C1111.51 553.234 1107.49 560.214 1101.01 563.969C1100.6 564.204 1100.16 564.315 1099.72 564.316C1098.84 564.316 1097.97 563.856 1097.5 563.034C1096.78 561.807 1097.2 560.234 1098.43 559.522C1103.33 556.683 1106.37 551.407 1106.37 545.754C1106.37 544.334 1107.52 543.145 1108.94 543.145C1110.36 543.145 1111.51 544.257 1111.51 545.676V545.693ZM1116.97 564.993C1116.47 565.684 1115.69 566.051 1114.89 566.051C1114.37 566.051 1113.84 565.891 1113.38 565.559C1112.23 564.724 1111.98 563.117 1112.82 561.969C1116.26 557.235 1118.08 551.627 1118.08 545.753C1118.08 544.333 1119.23 543.122 1120.65 543.122C1122.07 543.122 1123.22 544.21 1123.22 545.63V545.753C1123.22 552.722 1121.06 559.375 1116.97 564.993Z" fill="#423117"/>
<path d="M1196.13 319.453C1188.87 319.453 1183.05 325.47 1183.29 332.729L1189.46 517.364H1202.81L1208.97 332.729C1209.22 325.47 1203.4 319.453 1196.13 319.453ZM1200.85 341.945C1200.85 344.547 1198.74 346.657 1196.14 346.657C1193.53 346.657 1191.43 344.548 1191.43 341.945V334.521C1191.43 331.919 1193.53 329.809 1196.14 329.809C1198.74 329.809 1200.85 331.919 1200.85 334.521V341.945Z" fill="#423117"/>
<path d="M1196.13 504.319C1175.16 504.319 1158.15 521.323 1158.15 542.298V597.41H1234.11V542.298C1234.11 521.322 1217.11 504.319 1196.13 504.319ZM1172.04 583.897C1172.04 585.79 1170.51 587.324 1168.61 587.324C1166.72 587.324 1165.19 585.79 1165.19 583.897V533.446C1165.19 531.554 1166.72 530.019 1168.61 530.019C1170.5 530.019 1172.04 531.553 1172.04 533.446V583.897ZM1185.89 583.897C1185.89 585.79 1184.35 587.324 1182.46 587.324C1180.57 587.324 1179.03 585.79 1179.03 583.897V533.446C1179.03 531.554 1180.57 530.019 1182.46 530.019C1184.35 530.019 1185.89 531.553 1185.89 533.446V583.897ZM1199.73 583.897C1199.73 585.79 1198.2 587.324 1196.31 587.324C1194.41 587.324 1192.88 585.79 1192.88 583.897V533.446C1192.88 531.554 1194.41 530.019 1196.31 530.019C1198.2 530.019 1199.73 531.553 1199.73 533.446V583.897ZM1213.58 583.897C1213.58 585.79 1212.05 587.324 1210.16 587.324C1208.26 587.324 1206.73 585.79 1206.73 583.897V533.446C1206.73 531.554 1208.26 530.019 1210.16 530.019C1212.05 530.019 1213.58 531.553 1213.58 533.446V583.897ZM1227.43 583.897C1227.43 585.79 1225.9 587.324 1224 587.324C1222.11 587.324 1220.58 585.79 1220.58 583.897V533.446C1220.58 531.554 1222.11 530.019 1224 530.019C1225.9 530.019 1227.43 531.553 1227.43 533.446V583.897Z" fill="#423117"/>
<path d="M1301.79 319.453C1294.53 319.453 1288.71 325.47 1288.95 332.729L1295.12 517.364H1308.47L1314.63 332.729C1314.88 325.47 1309.06 319.453 1301.79 319.453ZM1306.51 341.945C1306.51 344.547 1304.4 346.657 1301.8 346.657C1299.2 346.657 1297.09 344.548 1297.09 341.945V334.521C1297.09 331.919 1299.19 329.809 1301.8 329.809C1304.4 329.809 1306.51 331.919 1306.51 334.521V341.945Z" fill="#423117"/>
<path d="M1301.79 504.319C1280.82 504.319 1263.81 521.323 1263.81 542.298V597.41H1339.77V542.298C1339.77 521.322 1322.77 504.319 1301.79 504.319ZM1277.7 583.897C1277.7 585.79 1276.17 587.324 1274.27 587.324C1272.38 587.324 1270.85 585.79 1270.85 583.897V533.446C1270.85 531.554 1272.38 530.019 1274.27 530.019C1276.16 530.019 1277.7 531.553 1277.7 533.446V583.897ZM1291.55 583.897C1291.55 585.79 1290.01 587.324 1288.12 587.324C1286.23 587.324 1284.69 585.79 1284.69 583.897V533.446C1284.69 531.554 1286.23 530.019 1288.12 530.019C1290.01 530.019 1291.55 531.553 1291.55 533.446V583.897ZM1305.4 583.897C1305.4 585.79 1303.86 587.324 1301.97 587.324C1300.08 587.324 1298.54 585.79 1298.54 583.897V533.446C1298.54 531.554 1300.08 530.019 1301.97 530.019C1303.86 530.019 1305.4 531.553 1305.4 533.446V583.897ZM1319.24 583.897C1319.24 585.79 1317.71 587.324 1315.82 587.324C1313.92 587.324 1312.39 585.79 1312.39 583.897V533.446C1312.39 531.554 1313.92 530.019 1315.82 530.019C1317.71 530.019 1319.24 531.553 1319.24 533.446V583.897ZM1333.09 583.897C1333.09 585.79 1331.56 587.324 1329.66 587.324C1327.77 587.324 1326.24 585.79 1326.24 583.897V533.446C1326.24 531.554 1327.77 530.019 1329.66 530.019C1331.56 530.019 1333.09 531.553 1333.09 533.446V583.897Z" fill="#423117"/>
<path d="M1662.92 589.621C1701.27 551.265 1701.27 489.078 1662.92 450.723C1624.56 412.367 1562.37 412.367 1524.02 450.723C1485.66 489.078 1485.66 551.265 1524.02 589.621C1562.37 627.977 1624.56 627.977 1662.92 589.621Z" fill="#423117"/>
<path d="M1593.48 597.526C1636.21 597.526 1670.84 562.89 1670.84 520.165C1670.84 477.439 1636.21 442.804 1593.48 442.804C1550.76 442.804 1516.12 477.439 1516.12 520.165C1516.12 562.89 1550.76 597.526 1593.48 597.526Z" fill="#5C6E43"/>
<path d="M1593.48 279.095C1587.14 279.095 1582.01 284.232 1582.01 290.568V425.233H1604.95V290.568C1604.95 284.232 1599.82 279.095 1593.48 279.095ZM1596.39 298.288C1596.39 299.892 1595.08 301.192 1593.48 301.192C1591.88 301.192 1590.58 299.892 1590.58 298.288V290.257C1590.58 288.653 1591.88 287.353 1593.48 287.353C1595.08 287.353 1596.39 288.653 1596.39 290.257V298.288Z" fill="#423117"/>
<path d="M1593.52 290.072C1592.46 290.072 1591.61 289.217 1591.61 288.163V274.736C1591.61 273.682 1592.46 272.827 1593.52 272.827C1594.57 272.827 1595.43 273.682 1595.43 274.736V288.163C1595.43 289.218 1594.57 290.072 1593.52 290.072Z" fill="#764441"/>
<path d="M1880.08 589.623C1918.43 551.267 1918.43 489.08 1880.08 450.725C1841.72 412.369 1779.53 412.369 1741.18 450.725C1702.82 489.08 1702.82 551.267 1741.18 589.623C1779.53 627.979 1841.72 627.979 1880.08 589.623Z" fill="#423117"/>
<path d="M1810.64 597.526C1853.37 597.526 1888 562.89 1888 520.165C1888 477.439 1853.37 442.804 1810.64 442.804C1767.92 442.804 1733.28 477.439 1733.28 520.165C1733.28 562.89 1767.92 597.526 1810.64 597.526Z" fill="#5C6E43"/>
<path d="M1810.64 279.095C1804.3 279.095 1799.17 284.232 1799.17 290.568V425.233H1822.12V290.568C1822.12 284.232 1816.98 279.095 1810.64 279.095ZM1813.55 298.288C1813.55 299.892 1812.25 301.192 1810.64 301.192C1809.04 301.192 1807.74 299.892 1807.74 298.288V290.257C1807.74 288.653 1809.04 287.353 1810.64 287.353C1812.25 287.353 1813.55 288.653 1813.55 290.257V298.288Z" fill="#423117"/>
<path d="M1810.64 290.072C1809.59 290.072 1808.73 289.217 1808.73 288.163V274.736C1808.73 273.682 1809.59 272.827 1810.64 272.827C1811.7 272.827 1812.55 273.682 1812.55 274.736V288.163C1812.55 289.218 1811.7 290.072 1810.64 290.072Z" fill="#764441"/>
<path d="M1573.38 440.126C1592.69 456.928 1613.64 474.488 1639.06 477.527C1661.68 480.232 1685.26 469.982 1699.23 451.99C1713.2 433.998 1717.35 408.987 1710.56 387.24C1703.78 365.493 1686.44 347.455 1665.22 339.174C1654.41 334.959 1642.8 333.157 1631.94 329.09C1615.84 323.062 1602.01 312.31 1588.67 301.479C1575.32 290.648 1561.97 279.448 1546.35 272.274C1530.73 265.099 1512.22 262.343 1496.35 268.956C1480.49 275.569 1468.74 293.244 1472.56 310.003C1451.11 308.658 1428.81 315.602 1413.47 330.658C1398.13 345.715 1390.33 368.527 1394.72 389.568C1399.1 410.609 1416.18 428.844 1437.23 433.194C1461.85 438.283 1486.29 425.269 1511.25 422.281C1531.87 419.814 1557.71 426.498 1573.38 440.126Z" fill="white"/>
<path d="M1448.31 381.283C1442.66 382.286 1436.63 380.961 1431.93 377.68C1427.22 374.399 1425.25 369.654 1424.23 364.007C1429.09 371.116 1439.22 372.606 1447.6 370.599C1455.97 368.591 1463.43 363.888 1471.5 360.906C1482.81 356.731 1495.44 354.06 1507.14 356.954C1498.46 350.94 1491.68 341.618 1488.46 331.553C1499.83 348.079 1521.88 356.241 1541.69 353.146C1543.07 344.378 1548.54 336.326 1554.47 329.728C1548.53 356.674 1562.15 386.752 1586.33 400.051C1610.51 413.35 1642.03 407.206 1661.61 387.756C1659.71 400.197 1650.15 411.544 1638.52 416.348C1645.46 417.573 1649.78 424.407 1652.93 430.709C1656.08 437.011 1659.58 444.046 1666.2 446.463C1670.64 448.085 1675.69 447.191 1679.94 445.107C1684.18 443.023 1690.86 441.022 1694.4 437.886C1675.46 456.833 1650.45 469.523 1624.05 473.962C1605.17 467.334 1588.75 453.504 1573.38 440.127C1557.71 426.499 1531.87 419.815 1511.25 422.283C1488.65 424.989 1466.47 435.869 1444.2 434.133C1441.41 428.838 1439.74 422.944 1440.22 417.015C1441.18 405.244 1450.8 392.826 1448.31 381.283Z" fill="#E6E4FE"/>
<path d="M1442.07 429.336C1442.11 429.296 1442.16 429.257 1442.21 429.217C1444.95 426.901 1446.93 423.834 1447.9 420.381C1451.69 406.981 1456.24 391.851 1459.78 379.025C1484.33 367.185 1512.34 362.833 1539.38 366.125C1540.59 367.503 1541.76 368.917 1542.87 370.355C1550.27 379.981 1556.05 390.881 1564.42 399.686C1575.09 410.92 1589.8 418.235 1605.19 419.965C1613.72 420.923 1622.41 420.104 1630.67 417.776C1638.34 427.324 1644.88 437.766 1650.02 448.752C1639.97 462.377 1629.79 475.906 1619.72 489.517C1618.06 491.757 1617.1 494.433 1616.94 497.215C1616.94 497.266 1616.94 497.318 1616.93 497.37C1616.57 503.806 1611.94 509.203 1605.63 510.527L1596.41 512.463C1543.01 523.665 1491.85 484.279 1441.75 462.696C1440.16 458.49 1438.48 453.955 1436.81 449.436C1434.16 442.297 1436.26 434.258 1442.07 429.336Z" fill="white"/>
<path d="M1380.34 911.546L1398.14 915.034C1416.34 918.602 1433.71 905.85 1435.77 887.41L1425.76 977.427H1725.61L1689.04 623.255H1622.36C1617.27 636.873 1608.24 648.957 1596.29 656.443C1583.03 664.753 1566.17 666.995 1551.74 661.192C1538.78 655.98 1528.3 644.025 1524.94 629.983H1481C1448.55 629.983 1420.27 652.103 1412.45 683.605L1394.54 755.773L1391.23 769.116L1387.06 785.904L1375.14 833.946H1361.05C1383.78 858.18 1392.13 880.488 1380.34 911.546Z" fill="white"/>
<path d="M1376.03 836.704C1382.93 831.55 1392.03 829.459 1400.49 831.087C1408.95 832.715 1416.63 838.036 1421.12 845.384C1406.22 841.994 1391.29 837.59 1376.03 836.704Z" fill="#CBCAFA"/>
<path d="M1464.36 771.229C1445.97 743.895 1440.85 708.059 1450.83 676.667C1439.62 689.705 1432.8 708.988 1435.04 726.037C1437.28 743.086 1450.16 761.529 1464.36 771.229Z" fill="#CBCAFA"/>
<path d="M1494.6 732.552C1494.6 732.552 1484.94 672.253 1504.42 629.982H1485.95C1466.47 672.252 1476.13 732.552 1476.13 732.552H1494.6Z" fill="#C77080"/>
<path d="M1649.34 725.824C1649.34 725.824 1639.68 665.525 1659.16 623.255H1640.69C1621.21 665.525 1630.87 725.824 1630.87 725.824H1649.34Z" fill="#C77080"/>
<path d="M1630.88 725.824H1649.34C1649.34 725.824 1648.31 719.372 1647.61 709.243C1641.53 710.333 1635.46 711.423 1629.39 712.512C1630.06 720.737 1630.88 725.824 1630.88 725.824Z" fill="#633D3E"/>
<path d="M1474.45 716.785C1475.16 726.449 1476.13 732.553 1476.13 732.553H1494.6C1494.6 732.553 1493.71 726.97 1493.02 718.042C1486.81 718.031 1480.61 717.599 1474.45 716.785Z" fill="#633D3E"/>
<path d="M1425.76 977.427L1450.85 751.791C1459.88 747.898 1466.54 737.474 1469.85 731.268C1471.4 728.356 1474.51 726.661 1477.8 726.914C1526.31 730.657 1609.74 725.968 1649.33 718.933C1652.82 718.313 1656.3 720 1658 723.109C1671.18 747.294 1688.06 764.855 1704.52 773.205L1725.61 977.425H1425.76V977.427Z" fill="#C77080"/>
<path d="M1676.12 749.693C1685.19 760.315 1694.92 768.336 1704.52 773.206L1725.61 977.426L1694.68 677.872L1682.14 716.36C1678.62 727.158 1676.62 738.373 1676.12 749.693Z" fill="#CBCAFA"/>
<path d="M1436.87 877.477L1425.76 977.427L1436.87 877.477Z" fill="white"/>
<path d="M1676.12 749.693C1676 752.41 1675.94 755.131 1676 757.856L1677.48 828.798L1600.36 794.924L1537.7 822.595L1436.87 877.478L1425.76 977.428H1725.61L1704.52 773.208C1694.92 768.336 1685.19 760.315 1676.12 749.693Z" fill="#633D3E"/>
<path d="M1492.56 746.167L1478.87 745.293C1476.71 745.155 1475.07 743.289 1475.21 741.126C1475.35 738.963 1477.21 737.321 1479.37 737.459L1493.06 738.333C1495.23 738.471 1496.87 740.337 1496.73 742.5C1496.59 744.663 1494.73 746.305 1492.56 746.167Z" fill="#797C99"/>
<path d="M1634.41 739.545L1648.1 738.671C1650.26 738.533 1651.91 736.667 1651.77 734.504C1651.63 732.341 1649.76 730.699 1647.6 730.837L1633.91 731.711C1631.75 731.849 1630.11 733.715 1630.25 735.878C1630.38 738.042 1632.25 739.683 1634.41 739.545Z" fill="#797C99"/>
<path d="M1583.11 590.754C1597.95 595.71 1615.54 590.977 1625.9 579.243C1631.89 572.451 1635.44 562.325 1631.32 554.26C1634.89 556.666 1640.55 556.283 1644.34 554.222C1648.12 552.161 1650.84 548.494 1652.51 544.52C1657.06 533.694 1653.76 520.084 1644.76 512.541C1644.09 496.665 1635.65 482.061 1623.7 471.593C1611.74 461.125 1595.42 455.815 1579.59 457.245C1572.99 445.235 1562.42 435.931 1549.84 430.501C1537.26 425.071 1522.86 423.961 1509.6 427.399C1509.16 422.692 1504.21 421.448 1499.5 420.977C1494.8 420.506 1489.98 423.724 1488.62 428.251C1482.36 425.437 1475.72 423.177 1468.86 422.949C1461.99 422.721 1454.84 424.726 1449.9 429.492C1444.96 434.258 1442.71 442.027 1445.44 448.329C1435.57 446.676 1424.09 452.567 1419.77 461.586C1415.45 470.605 1417.81 482.353 1425.28 489.006C1418.5 494.3 1414.81 503.285 1415.9 511.813C1417 520.341 1422.84 528.102 1430.73 531.513C1429.31 534.431 1429.67 538.008 1431.17 540.888C1432.66 543.768 1435.17 546.015 1437.93 547.731C1445.93 552.721 1456.44 553.431 1465.05 549.565C1472.48 562.235 1484.84 572.108 1498.99 576.036C1513.15 579.964 1528.8 578.17 1541.69 571.143C1546.58 577.454 1551.06 584.277 1557.91 588.368C1564.76 592.46 1576.45 595.153 1583.11 590.754Z" fill="#633D3E"/>
<path d="M1614.79 602.48C1576.88 584.645 1527.98 619.597 1527.98 619.597C1541 654.955 1575.68 660.992 1575.68 660.992L1612.37 617.723L1614.79 602.48Z" fill="#CBCAFA"/>
<path d="M1551.74 661.193C1566.17 666.996 1583.03 664.754 1596.29 656.444C1608.24 648.958 1617.27 636.874 1622.36 623.256H1606.26L1577.33 540.528L1527.82 602.278L1537.65 629.985H1524.94C1528.3 644.026 1538.78 655.98 1551.74 661.193Z" fill="#EBAE90"/>
<path d="M1558.23 612.881C1567.53 606.127 1573.82 595.725 1576.88 584.644C1579.95 573.563 1579.98 561.818 1578.45 550.423C1578.03 547.3 1577.48 544.198 1576.86 541.11L1527.82 602.277L1534.23 620.344C1542.69 620.682 1551.33 617.891 1558.23 612.881Z" fill="#633D3E"/>
<path d="M1681.52 645.953L1689.04 623.255C1719.39 623.255 1746.51 642.229 1756.91 670.746L1794.87 774.814L1817.12 835.803C1822.79 851.333 1821.25 868.578 1812.94 882.866C1798.3 908.018 1766.76 917.646 1740.57 904.954L1716.95 893.506L1709.95 825.723L1679.63 713.615C1673.61 691.363 1674.27 667.834 1681.52 645.953Z" fill="white"/>
<path d="M1704.95 635.673C1700.25 638.662 1695.32 643.069 1691.13 648.673C1686.92 654.256 1683.46 660.999 1681.27 668.148C1679.09 675.302 1678.21 682.83 1678.58 689.812C1678.94 696.802 1680.56 703.207 1682.8 708.311C1682.27 702.75 1682.04 696.459 1682.56 689.857C1683.07 683.259 1684.32 676.367 1686.34 669.696C1688.39 663.032 1691.19 656.615 1694.46 650.857C1697.71 645.085 1701.41 639.996 1704.95 635.673Z" fill="#CBCAFA"/>
<path d="M1782.16 841.634C1764.5 835.952 1746.83 830.27 1729.17 824.588C1737.97 820.117 1748.49 819.702 1757.97 822.452C1767.46 825.202 1777.11 833.147 1782.16 841.634Z" fill="#CBCAFA"/>
<path d="M1704.89 822.296C1707.81 817.824 1713.39 815.905 1718.45 817.621C1726.51 820.357 1734.61 823.165 1742.67 825.884C1746.7 827.246 1749.7 830.673 1750.46 834.863C1754.07 854.705 1749.28 875.586 1737.02 891.766C1733.61 896.256 1729.24 900.533 1724.18 902.709C1720.47 904.306 1716.15 903.797 1712.89 901.418C1706.56 896.813 1700.49 892.013 1694.19 887.387C1691.03 885.065 1689.23 881.303 1689.46 877.388C1690.56 858.344 1694.68 837.918 1704.89 822.296Z" fill="#EBEAFE"/>
<path d="M1533 794.062C1546.88 782.833 1563.34 775.354 1579.61 767.995C1565.1 773.792 1550.6 779.589 1536.09 785.387C1533.12 786.573 1529.71 787.768 1526.95 785.305C1525.51 784.018 1524.83 782.037 1524.96 780.108C1525.26 775.662 1528.49 772.597 1531.69 769.934C1546.08 757.977 1563.33 749.647 1581.56 745.486C1593.05 742.861 1605.04 747.183 1612.43 756.374L1647.97 800.59L1718.99 823.603C1722.13 834.056 1722.53 845.341 1719.96 855.953C1718.43 862.26 1715.85 868.295 1712.42 873.806L1639.49 824.618C1633.75 825.748 1627.87 826.883 1622.07 826.08C1616.27 825.276 1610.61 821.5 1608.13 816.195C1598.48 820.888 1588.83 825.581 1579.18 830.275C1576.16 831.743 1573.03 833.241 1569.67 833.349C1567.36 833.423 1564.93 832.636 1563.26 831.12C1563.21 831.497 1563.19 831.875 1563.2 832.25C1563.16 830.56 1563.74 828.792 1564.74 827.403C1566.43 825.066 1569 823.559 1571.49 822.119C1580.18 817.111 1588.86 812.102 1597.54 807.094C1584.96 813.049 1572.38 819.004 1559.8 824.959C1555.99 826.763 1552.04 828.603 1547.82 828.686C1543.61 828.769 1539.04 826.594 1537.7 822.596C1536.57 819.232 1538.01 815.435 1540.41 812.823C1542.81 810.211 1546.04 808.544 1549.2 806.931C1563.49 799.633 1577.78 792.335 1592.08 785.037C1580.31 790.202 1568.55 795.368 1556.79 800.533C1550.84 803.146 1544.89 805.758 1538.95 808.371C1535.41 809.922 1531.02 811.414 1528.11 808.395C1526.78 807.018 1526.28 805.007 1526.55 803.112C1527.13 799.145 1530.06 796.44 1533 794.062Z" fill="#EBAE90"/>
<path d="M1569.67 833.348C1573.03 833.24 1576.16 831.742 1579.18 830.274C1588.83 825.581 1598.48 820.888 1608.13 816.194C1610.61 821.499 1616.27 825.276 1622.07 826.079C1627.87 826.883 1633.75 825.748 1639.49 824.617L1712.43 873.805C1710.02 877.683 1707.18 881.292 1703.99 884.554L1634.81 833.097C1633.32 833.153 1631.84 833.208 1630.35 833.24C1625.9 833.336 1621.44 833.223 1617.09 832.283C1611.3 831.029 1606.41 827.939 1603.04 823.065C1594.4 827.207 1585.76 831.349 1577.12 835.491C1575.02 836.502 1572.86 837.528 1570.53 837.77C1569.37 837.891 1568.15 837.779 1567.04 837.403C1565.93 837.027 1564.94 836.387 1564.24 835.453C1564.01 835.151 1563.83 834.828 1563.68 834.492C1563.65 834.428 1563.63 834.359 1563.61 834.294C1563.49 834.01 1563.39 833.722 1563.33 833.423C1563.32 833.38 1563.32 833.334 1563.31 833.291C1563.25 832.959 1563.2 832.621 1563.2 832.279C1563.2 832.268 1563.2 832.258 1563.2 832.247C1563.19 831.873 1563.21 831.495 1563.26 831.117C1564.93 832.635 1567.36 833.422 1569.67 833.348Z" fill="#CD8174"/>
<path d="M1431.35 491.766C1434.42 516.329 1437.61 541.308 1447.7 563.912C1457.79 586.516 1475.99 606.807 1499.89 613.281C1520.98 618.996 1544.49 612.953 1561.36 599.07C1578.24 585.187 1588.55 564.105 1590.94 542.384C1597.62 547.019 1608.48 545.655 1615.26 541.165C1622.04 536.674 1626.11 528.714 1626.84 520.616C1627.43 514.195 1625.98 507.438 1622 502.363C1618.02 497.288 1611.34 494.186 1604.99 495.316C1598.61 496.453 1593.49 501.562 1590.68 507.411C1587.87 513.26 1587.01 519.826 1586.28 526.271C1579.22 521.191 1574.13 511.983 1575.15 503.344C1565.65 502.129 1556.13 497.179 1551.27 488.934C1546.4 480.689 1545.58 470.179 1549.11 461.278C1540.74 465.731 1529.07 466.23 1520.02 463.408C1510.98 460.585 1503.16 454.024 1498.82 445.605C1494.89 452.758 1488.5 459.363 1480.74 461.894C1472.99 464.425 1464.27 463.89 1456.88 460.43C1457.24 467.619 1455.82 475.896 1451.04 481.277C1446.26 486.659 1438.53 491.277 1431.35 491.766Z" fill="#EBAE90"/>
<path d="M1608.68 506.31C1602.38 510.297 1598.23 517.497 1597.95 524.95C1597.86 527.316 1598.25 529.929 1600.02 531.494C1601.63 532.912 1604.09 533.098 1606.08 532.3C1608.07 531.502 1609.63 529.856 1610.72 528.012C1611.8 526.195 1612.5 524.093 1612.35 521.985C1612.21 519.877 1611.13 517.778 1609.31 516.705C1607.49 515.632 1604.93 515.793 1603.46 517.31C1603.87 513.607 1606.01 508.911 1608.68 506.31Z" fill="#CD8174"/>
<path d="M1542.04 505.892C1529.22 504.463 1516.41 503.034 1503.59 501.605C1505.45 498.014 1508.84 494.37 1512.51 492.689C1516.18 491.008 1520.43 490.597 1524.35 491.543C1531.48 493.258 1537.34 500.262 1542.04 505.892Z" fill="#633D3E"/>
<path d="M1440.46 514.426C1447.34 511.635 1454.22 508.843 1461.1 506.052C1459.35 503.225 1457.05 500.67 1453.88 499.676C1450.32 498.56 1446.36 500.524 1444.07 503.472C1441.78 506.42 1441.26 510.781 1440.46 514.426Z" fill="#633D3E"/>
<path d="M1521.42 532.504C1521.42 536.935 1518.73 540.527 1515.41 540.527C1512.08 540.527 1509.39 536.935 1509.39 532.504C1509.39 528.073 1512.08 524.481 1515.41 524.481C1518.73 524.481 1521.42 528.073 1521.42 532.504Z" fill="#633D3E"/>
<path d="M1463.01 533.372C1463.85 537.32 1462.16 541.03 1459.22 541.66C1456.28 542.289 1453.22 539.599 1452.37 535.652C1451.52 531.704 1453.22 527.994 1456.16 527.364C1459.09 526.735 1462.16 529.425 1463.01 533.372Z" fill="#633D3E"/>
<path d="M1498.38 555.426C1492.02 556.048 1485.62 556.312 1479.23 556.217C1480.55 559.997 1484.81 562.986 1488.81 562.859C1492.81 562.733 1497.31 559.282 1498.38 555.426Z" fill="#CD8174"/>
<path d="M1532.18 571.878C1517.33 577.896 1501.78 582.197 1485.95 584.669C1491.29 587.833 1496.99 591.083 1503.07 592.342C1509.15 593.6 1515.82 593.028 1521 589.606C1526.57 585.93 1529.96 578.167 1532.18 571.878Z" fill="white"/>
<path d="M1530.53 595.199C1523.97 596.903 1517.41 598.607 1510.85 600.311C1513.92 602.026 1518.73 602.773 1522.14 601.926C1525.55 601.079 1528.62 598.151 1530.53 595.199Z" fill="#CD8174"/>
<path d="M1573.6 548.082C1575.23 554.156 1567.71 561.452 1556.81 564.378C1545.9 567.304 1535.74 564.752 1534.11 558.678C1532.48 552.604 1540 545.308 1550.91 542.382C1561.81 539.456 1571.98 542.008 1573.6 548.082Z" fill="#C77080"/>
<path d="M1459.57 570.507C1465.16 570.507 1469.69 566.673 1469.69 561.944C1469.69 557.215 1465.16 553.381 1459.57 553.381C1453.98 553.381 1449.45 557.215 1449.45 561.944C1449.45 566.673 1453.98 570.507 1459.57 570.507Z" fill="#C77080"/>
<path d="M1460.28 467.688C1467.05 471.383 1476.31 472.702 1483.4 469.674C1490.49 466.646 1496.06 460.247 1498.07 452.802C1498.41 458.893 1502.52 464.977 1507.61 468.338C1512.71 471.699 1519.01 472.926 1525.1 472.516C1531.19 472.107 1537.08 470.148 1542.61 467.567C1539.91 476.103 1542.15 486.496 1547.71 493.51C1553.28 500.524 1565.03 504.425 1575.15 503.344C1565.65 502.129 1556.13 497.179 1551.27 488.934C1546.4 480.689 1545.58 470.179 1549.11 461.278C1540.74 465.731 1529.07 466.23 1520.02 463.408C1510.98 460.585 1503.16 454.024 1498.82 445.605C1494.89 452.758 1488.5 459.363 1480.74 461.894C1472.99 464.425 1464.27 463.89 1456.88 460.43C1457.24 467.619 1455.82 475.895 1451.04 481.277C1446.26 486.658 1438.53 491.276 1431.35 491.765C1431.62 493.996 1431.91 496.231 1432.19 498.467C1440.07 498.467 1448.83 495.557 1454.04 489.657C1459.25 483.757 1461.61 475.447 1460.28 467.688Z" fill="#CD8174"/>
<path d="M1622.36 623.255L1614.79 602.479C1606.51 619.719 1591.12 634.689 1572.59 639.423C1572.36 647.782 1570.47 656.552 1568.5 664.68C1581.01 667.784 1595.38 665.869 1605.63 658.058C1615.87 650.247 1622.04 636.136 1622.36 623.255Z" fill="white"/>
<path d="M1524.94 629.985L1527.98 619.598C1535.25 629.806 1543.81 640.868 1556.34 640.868L1568.5 664.682C1557.64 664.682 1547.82 666.472 1539.19 659.864C1530.57 653.256 1525.27 640.842 1524.94 629.985Z" fill="white"/>
<path d="M1306.19 830.376L1371.28 836.413C1381.57 843.957 1388.93 855.297 1391.69 867.757C1394.45 880.216 1392.53 893.656 1386.38 904.842C1356.56 894.587 1325.74 886.262 1295.91 876.007C1299.76 861.404 1302.33 844.979 1306.19 830.376Z" fill="#CD8174"/>
<path d="M1364.85 897.768C1371.8 879.796 1371.62 855.868 1350.06 834.445C1350.07 834.432 1350.08 834.418 1350.1 834.405C1352.71 831.934 1356.04 830.361 1359.64 830.177C1362.18 830.047 1364.73 829.923 1367.26 829.787C1369.48 829.668 1371.71 830.004 1373.74 830.914C1382.23 834.724 1388.97 841.965 1393.24 850.323C1398.62 860.85 1400.93 872.924 1399.81 884.692C1399.11 891.991 1397.1 899.156 1393.94 905.77C1390.76 912.416 1382.77 915.206 1376.11 912.047C1375.1 911.566 1374.09 911.085 1373.08 910.606C1369.44 908.869 1366.76 905.582 1365.85 901.651C1365.55 900.334 1365.23 899.026 1364.85 897.768Z" fill="#EBEAFE"/>
<path d="M1238.46 846.049C1240.9 840.681 1241.52 831.812 1238.23 826.918C1235.82 823.335 1232.17 820.785 1228.45 818.585C1224.73 816.385 1220.83 814.427 1217.52 811.654C1214.21 808.881 1211.47 805.112 1211.02 800.816C1210.57 796.52 1212.95 791.78 1217.07 790.503C1219.98 789.602 1223.19 790.505 1225.81 792.059C1228.43 793.613 1230.62 795.775 1233 797.678C1240.16 803.402 1249.15 806.792 1258.3 807.217C1264.81 807.519 1271.32 806.368 1277.82 806.729C1294.34 807.646 1309.76 819.265 1315.2 834.889C1321.11 835.912 1326.94 838.783 1330.89 843.302C1334.84 847.821 1337.18 853.719 1337.39 859.715C1337.58 864.882 1336.05 870.356 1332.2 873.799C1328.94 876.705 1324.4 877.84 1320.04 877.747C1315.67 877.655 1311.42 876.449 1307.25 875.173C1283.35 867.86 1260.16 858.435 1238.46 846.049Z" fill="#EBAE90"/>
<path d="M1213.94 805.27C1218.17 809.002 1223.62 810.964 1228.78 813.241C1233.94 815.519 1239.17 818.408 1242.1 823.226C1243.76 825.947 1244.7 829.285 1247.28 831.154C1249.34 832.648 1252.09 832.878 1254.6 832.461C1257.12 832.044 1259.49 831.049 1261.92 830.277C1272.62 826.872 1284.33 827.874 1295.09 831.082C1305.86 834.29 1315.54 839.183 1325.45 844.457C1325.83 842.575 1325.79 840.641 1325.46 838.755C1327.49 840.01 1329.34 841.523 1330.89 843.3C1334.84 847.819 1337.17 853.717 1337.39 859.713C1337.58 864.88 1336.05 870.354 1332.2 873.797C1328.94 876.703 1324.4 877.838 1320.04 877.745C1315.67 877.653 1311.42 876.448 1307.25 875.171C1283.35 867.858 1260.16 858.434 1238.45 846.048C1240.9 840.68 1241.52 831.81 1238.23 826.917C1235.82 823.334 1232.16 820.784 1228.45 818.584C1224.73 816.383 1220.83 814.426 1217.52 811.653C1214.6 809.207 1212.13 805.983 1211.28 802.309C1212.06 803.395 1212.95 804.402 1213.94 805.27Z" fill="#CD8174"/>
<path d="M1203.96 851.392L1361.99 902.868C1367.58 904.691 1373.59 901.632 1375.42 896.037C1377.24 890.442 1374.18 884.429 1368.59 882.606L1210.56 831.13L1203.96 851.392Z" fill="#633D3E"/>
<path d="M1200.26 846.06C1177.89 831.389 1141.55 814.816 1099.19 801.019C1056.84 787.223 1017.7 779.211 990.985 777.891C974.283 766.938 965.356 757.043 967.597 750.165C972.838 734.075 1037.06 740.565 1111.03 764.662C1185.01 788.759 1240.73 821.337 1235.49 837.428C1233.25 844.306 1220.21 847.046 1200.26 846.06Z" fill="#423117"/>
<path d="M1099.19 801.019C1141.55 814.816 1177.89 831.388 1200.26 846.059C1173.54 844.739 1134.41 836.727 1092.05 822.931C1049.7 809.134 1013.36 792.562 990.985 777.891C1017.7 779.211 1056.84 787.223 1099.19 801.019Z" fill="#5C6E43"/>
<path d="M998.701 758.524C999.29 752.772 1000.79 746.463 1005.47 743.061C1001.66 737.962 998.032 732.574 996.241 726.467C994.45 720.36 994.727 713.365 998.325 708.115C1001.92 702.865 1009.92 699.293 1015.66 702.035C1010.97 696.351 1008.32 689.017 1008.29 681.647C1008.28 677.715 1009.03 673.797 1010.43 670.12C1014.02 667.129 1018.78 665.294 1023.44 664.316C1024.88 659.691 1026.39 654.921 1029.56 651.258C1032.73 647.595 1038.02 645.313 1042.53 647.099C1046.65 648.734 1048.99 653.347 1049.16 657.777C1049.33 662.207 1046.68 666.291 1044.92 670.36C1050.12 670.25 1057.38 673.797 1054.61 678.196C1049.8 685.85 1053.63 696.269 1059.91 702.782C1066.18 709.295 1074.51 713.468 1081.11 719.649C1087.71 725.83 1092.56 735.529 1088.98 743.834C1105.37 747.387 1118.64 762.383 1115.65 778.876C1128.5 780.451 1140.12 789.69 1144.56 801.862C1146.49 798.615 1151.17 797.879 1154.63 799.404C1158.08 800.929 1160.5 804.134 1162.35 807.425C1169.3 819.737 1170.36 835.204 1165.16 848.35C1116.43 848.32 1061.4 832.327 1017.99 805.242C1010.46 796.617 1004.67 786.468 1001.13 775.573C999.341 770.073 998.112 764.276 998.701 758.524Z" fill="#C77C4A"/>
<path d="M979.469 759.235C980.869 750.585 986.926 742.834 994.981 739.385C989.896 728.88 989.313 716.286 993.405 705.356C994.494 702.447 995.985 699.549 998.478 697.696C1000.97 695.844 1004.68 695.334 1007.15 697.218C1003.39 690.908 1002.88 682.771 1005.83 676.044C1006.87 673.681 1008.48 671.737 1010.43 670.117C1009.03 673.794 1008.28 677.713 1008.29 681.645C1008.32 689.015 1010.97 696.349 1015.66 702.033C1009.92 699.291 1001.92 702.862 998.325 708.112C994.728 713.362 994.451 720.358 996.241 726.465C998.032 732.572 1001.66 737.96 1005.47 743.059C1000.8 746.461 999.29 752.77 998.701 758.522C998.112 764.274 999.342 770.07 1001.13 775.57C1004.67 786.465 1010.46 796.614 1018 805.239C1007.16 798.476 997.035 791.034 987.931 782.962C981.374 777.151 978.069 767.885 979.469 759.235Z" fill="#C77C4A"/>
<path d="M1130.52 769.818C1127.81 769.388 1124.45 776.356 1123.02 785.381C1121.59 794.406 1122.64 802.07 1125.36 802.499C1128.07 802.929 1131.43 795.961 1132.86 786.936C1134.29 777.912 1133.24 770.247 1130.52 769.818Z" fill="#E59B63"/>
<path d="M1099.37 766.84C1097.17 767.864 1098.09 774.44 1100.82 781.765C1103.57 789.083 1107.2 794.641 1109.53 793.972C1111.83 793.314 1111.87 786.383 1108.99 778.706C1106.12 771.025 1101.54 765.823 1099.37 766.84Z" fill="#E59B63"/>
<path d="M1113.11 697.459C1111.45 696.243 1106.93 699.6 1102.56 704.57C1098.19 709.551 1095.45 714.462 1096.87 715.954C1098.27 717.431 1103.52 714.721 1108.13 709.464C1112.75 704.215 1114.76 698.657 1113.11 697.459Z" fill="#E59B63"/>
<path d="M1054.5 727.032C1052.41 726.53 1049.36 731.755 1047.7 738.702C1046.03 745.649 1046.37 751.687 1048.46 752.189C1050.55 752.691 1053.6 747.466 1055.27 740.519C1056.93 733.572 1056.59 727.534 1054.5 727.032Z" fill="#E59B63"/>
<path d="M1009.09 728.907C1010.53 730.96 1017.22 728.763 1024.04 724C1030.86 719.237 1035.23 713.711 1033.8 711.658C1032.36 709.605 1025.67 711.802 1018.85 716.565C1012.03 721.328 1007.66 726.854 1009.09 728.907Z" fill="#E59B63"/>
<path d="M1011.3 764.904C1009.85 766.717 1013.56 772.079 1019.59 776.881C1025.61 781.684 1031.66 784.107 1033.11 782.295C1034.55 780.482 1030.84 775.12 1024.82 770.318C1018.8 765.516 1012.74 763.092 1011.3 764.904Z" fill="#E59B63"/>
<path d="M1078.79 655.619C1076.41 654.222 1070.59 659.726 1066.61 668.33C1062.61 676.926 1062.18 684.928 1064.77 685.837C1067.4 686.763 1071.94 680.662 1075.71 672.552C1079.47 664.431 1081.19 657.028 1078.79 655.619Z" fill="#E59B63"/>
<path d="M1045.05 692.521C1044.55 694.696 1050 697.805 1057.23 699.466C1064.45 701.127 1070.72 700.711 1071.22 698.536C1071.72 696.361 1066.26 693.252 1059.04 691.591C1051.81 689.93 1045.55 690.346 1045.05 692.521Z" fill="#E59B63"/>
<path d="M1015.69 657.635C1018.11 657.654 1020.13 651.137 1020.19 643.08C1020.26 635.022 1018.34 628.475 1015.92 628.456C1013.49 628.437 1011.48 634.954 1011.41 643.011C1011.35 651.069 1013.26 657.616 1015.69 657.635Z" fill="#E59B63"/>
<path d="M973.511 698.18C974.786 700.033 980.395 698.352 986.807 696.032C993.195 693.649 998.558 691.297 998.33 689.06C998.189 687.974 996.548 687.15 993.923 686.931C991.31 686.708 987.726 687.151 984.04 688.503C980.356 689.86 977.338 691.843 975.491 693.704C973.633 695.57 972.916 697.261 973.511 698.18Z" fill="#E59B63"/>
<path d="M966.589 732.085C968.077 733.77 974.157 730.795 979.023 724.447C983.909 718.114 985.222 711.474 983.212 710.468C981.162 709.421 976.868 713.768 972.49 719.423C968.149 725.106 965.05 730.373 966.589 732.085Z" fill="#E59B63"/>
<path d="M1169.68 743.335L1166.21 748.5C1164.41 751.179 1156.36 748.929 1148.23 743.473C1140.11 738.018 1134.98 731.423 1136.77 728.744L1140.24 723.579L1169.68 743.335Z" fill="#628C4C"/>
<path d="M1140.24 723.581C1138.44 726.26 1143.57 732.854 1151.7 738.31C1159.83 743.765 1167.88 746.016 1169.67 743.337C1171.47 740.658 1166.34 734.064 1158.21 728.608C1150.09 723.152 1142.04 720.902 1140.24 723.581Z" fill="#B8C947"/>
<path d="M1083.96 740.385L1088.12 745.011C1090.28 747.41 1086.13 754.661 1078.85 761.207C1071.57 767.752 1063.92 771.113 1061.76 768.714L1057.6 764.088L1083.96 740.385Z" fill="#628C4C"/>
<path d="M1057.6 764.088C1059.76 766.487 1067.41 763.126 1074.69 756.581C1081.97 750.036 1086.12 742.785 1083.96 740.385C1081.81 737.986 1074.16 741.347 1066.88 747.892C1059.6 754.437 1055.45 761.688 1057.6 764.088Z" fill="#B8C947"/>
<path d="M1025.04 686.829L1021.41 691.884C1019.53 694.506 1011.56 692.006 1003.61 686.301C995.65 680.596 990.726 673.845 992.607 671.223L996.233 666.168L1025.04 686.829Z" fill="#628C4C"/>
<path d="M996.232 666.168C994.351 668.79 999.275 675.541 1007.23 681.246C1015.19 686.951 1023.16 689.451 1025.04 686.829C1026.92 684.207 1022 677.456 1014.04 671.751C1006.09 666.045 998.113 663.546 996.232 666.168Z" fill="#B8C947"/>
<path d="M1180.81 815.073L1180.7 821.293C1180.64 824.519 1172.66 826.988 1162.87 826.807C1153.08 826.626 1145.2 823.864 1145.25 820.638L1145.37 814.418L1180.81 815.073Z" fill="#628C4C"/>
<path d="M1145.37 814.418C1145.31 817.644 1153.2 820.406 1162.98 820.587C1172.77 820.768 1180.75 818.299 1180.81 815.073C1180.87 811.847 1172.99 809.085 1163.2 808.904C1153.41 808.723 1145.43 811.192 1145.37 814.418Z" fill="#B8C947"/>
<path d="M1117.7 760.43C1119.14 761.497 1120.82 762.319 1121.65 763.911C1122.47 765.504 1122.72 767.391 1122.32 769.142C1119.42 768.5 1116.96 766.181 1116.09 763.334C1115.57 764.645 1114.76 765.742 1113.58 766.512C1112.4 767.283 1110.98 767.676 1109.57 767.621C1110.44 761.515 1115.99 760.54 1115.99 760.54L1117.7 760.43Z" fill="#9A1740"/>
<path d="M1116 760.541C1115.87 758.567 1115.18 756.632 1114.04 755.019C1113.35 754.038 1112.43 753.144 1111.28 752.802C1110.13 752.46 1108.62 752.676 1108.01 753.711C1105.84 753.208 1102.88 751.986 1102.61 749.772C1102.29 747.113 1104.25 744.472 1106.8 743.654C1109.35 742.836 1112.25 743.675 1114.27 745.444C1116.28 747.213 1117.46 749.795 1117.9 752.435C1118.35 755.076 1118.13 757.787 1117.7 760.431C1116.83 761.066 1116 760.541 1116 760.541Z" fill="#C82441"/>
<path d="M1017.49 752.01C1019.12 751.247 1020.64 750.159 1022.43 750.187C1024.23 750.215 1026 750.896 1027.35 752.076C1025.41 754.328 1022.2 755.393 1019.29 754.802C1020.19 755.879 1020.77 757.115 1020.89 758.519C1021.01 759.923 1020.68 761.362 1019.97 762.576C1015 758.914 1016.78 753.56 1016.78 753.56L1017.49 752.01Z" fill="#9A1740"/>
<path d="M1016.78 753.559C1014.98 752.733 1012.96 752.418 1010.99 752.658C1009.8 752.804 1008.58 753.182 1007.73 754.035C1006.88 754.887 1006.36 756.317 1006.98 757.347C1005.5 759.021 1003.03 761.038 1000.95 760.225C998.456 759.249 997.059 756.274 997.55 753.64C998.041 751.007 1000.16 748.844 1002.67 747.913C1005.18 746.982 1008.01 747.173 1010.55 748.031C1013.09 748.889 1015.37 750.374 1017.49 752.009C1017.64 753.074 1016.78 753.559 1016.78 753.559Z" fill="#C82441"/>
<path d="M1046.84 663.794C1046.25 662.098 1045.33 660.47 1045.55 658.688C1045.77 656.907 1046.64 655.213 1047.95 653.994C1049.98 656.167 1050.7 659.472 1049.8 662.308C1050.97 661.519 1052.26 661.075 1053.67 661.108C1055.08 661.141 1056.47 661.621 1057.6 662.464C1053.43 667.007 1048.3 664.666 1048.3 664.666L1046.84 663.794Z" fill="#9A1740"/>
<path d="M1048.3 664.664C1047.29 666.363 1046.76 668.346 1046.79 670.323C1046.8 671.525 1047.05 672.779 1047.81 673.713C1048.56 674.648 1049.93 675.323 1051.02 674.815C1052.53 676.459 1054.27 679.137 1053.24 681.116C1052 683.492 1048.89 684.563 1046.33 683.793C1043.76 683.024 1041.84 680.685 1041.18 678.088C1040.52 675.491 1041.02 672.697 1042.14 670.266C1043.26 667.835 1044.98 665.726 1046.83 663.791C1047.91 663.758 1048.3 664.664 1048.3 664.664Z" fill="#C82441"/>
<path d="M1063.62 789.832C1062.07 788.927 1060.31 788.292 1059.32 786.798C1058.32 785.304 1057.88 783.454 1058.08 781.671C1061.04 781.995 1063.74 784.035 1064.9 786.771C1065.27 785.412 1065.96 784.233 1067.05 783.34C1068.14 782.446 1069.51 781.901 1070.92 781.804C1070.72 787.968 1065.3 789.538 1065.3 789.538L1063.62 789.832Z" fill="#9A1740"/>
<path d="M1065.3 789.537C1065.64 791.485 1066.53 793.335 1067.84 794.816C1068.64 795.716 1069.64 796.506 1070.83 796.722C1072.01 796.937 1073.48 796.559 1073.98 795.464C1076.2 795.729 1079.26 796.625 1079.77 798.797C1080.38 801.405 1078.72 804.242 1076.28 805.332C1073.83 806.421 1070.84 805.901 1068.65 804.361C1066.46 802.82 1065.01 800.381 1064.28 797.804C1063.55 795.228 1063.48 792.507 1063.62 789.833C1064.41 789.105 1065.3 789.537 1065.3 789.537Z" fill="#C82441"/>
<path d="M967.597 750.165C965.356 757.043 974.283 766.938 990.985 777.891C1013.36 792.562 1049.7 809.135 1092.05 822.931C1134.41 836.727 1173.54 844.739 1200.26 846.059C1220.21 847.045 1233.25 844.306 1235.49 837.428C1231.34 850.162 1208.97 869.717 1208.97 869.717L1208.95 869.699C1196.9 879.959 1143.21 873.416 1082.09 853.507C1020.97 833.598 973.735 807.265 970.036 791.875L970.01 791.879C970.01 791.879 963.449 762.899 967.597 750.165Z" fill="#633D3E"/>
<path d="M1299.69 899.399C1301.43 897.109 1304.37 896.188 1307 895.016C1312.94 892.366 1318.01 887.805 1321.28 882.176C1324.54 876.547 1325.97 869.879 1325.32 863.407C1324.96 859.879 1323.95 856.325 1321.78 853.526C1320.3 851.622 1318.2 850.141 1315.91 849.474C1320.75 847.442 1327.1 849.558 1330.48 853.831C1334.4 858.784 1335.08 865.602 1334.4 871.884C1333.37 881.443 1329.35 890.925 1322.09 897.22C1315.67 902.783 1306.54 905.448 1298.37 903.482C1298.37 902.022 1298.81 900.562 1299.69 899.399Z" fill="#EBAE90"/>
<path d="M1288.23 879.067L1299.68 882.796C1303.96 882.773 1306.37 879.135 1307.63 875.037C1308.88 870.938 1308.58 866.55 1308.89 862.274C1309.21 857.999 1310.37 853.431 1313.72 850.747C1314.39 850.204 1315.13 849.797 1315.91 849.473C1318.2 850.14 1320.29 851.621 1321.77 853.525C1323.95 856.323 1324.96 859.878 1325.32 863.406C1325.97 869.879 1324.54 876.547 1321.27 882.175C1318.01 887.804 1312.94 892.365 1307 895.015C1304.37 896.187 1301.43 897.107 1299.69 899.398C1298.8 900.562 1298.37 902.022 1298.37 903.481C1297.29 903.222 1296.23 902.89 1295.19 902.466C1286.3 898.824 1285.63 888.324 1288.23 879.067Z" fill="#CD8174"/>
<path d="M1295.5 885.99C1304.81 877.484 1308.69 863.503 1305.11 851.414C1304.46 849.24 1303.56 847.078 1302.01 845.428C1301.13 844.503 1300.01 843.801 1298.81 843.404C1303.72 840.921 1310.44 843.016 1313.97 847.467C1317.89 852.42 1318.57 859.238 1317.89 865.52C1316.86 875.079 1312.84 884.561 1305.58 890.856C1300.58 895.182 1293.95 897.761 1287.41 897.768C1287.38 896.543 1287.57 895.317 1288.04 894.18C1289.45 890.729 1292.74 888.505 1295.5 885.99Z" fill="#EBAE90"/>
<path d="M1271.72 872.702L1283.16 876.431C1287.45 876.408 1289.86 872.77 1291.12 868.672C1292.37 864.573 1292.06 860.185 1292.38 855.909C1292.7 851.634 1293.86 847.066 1297.2 844.382C1297.7 843.981 1298.25 843.683 1298.81 843.403C1300.01 843.801 1301.13 844.502 1302 845.427C1303.56 847.076 1304.46 849.239 1305.1 851.413C1308.69 863.502 1304.8 877.484 1295.49 885.989C1292.74 888.505 1289.45 890.728 1288.03 894.179C1287.57 895.315 1287.38 896.542 1287.41 897.767C1284.43 897.77 1281.46 897.241 1278.68 896.102C1269.79 892.459 1269.12 881.959 1271.72 872.702Z" fill="#CD8174"/>
<path d="M1272.48 884.949C1274.32 882.604 1276.67 880.72 1278.8 878.636C1282.82 874.702 1286.12 869.942 1287.85 864.588C1289.57 859.233 1289.63 853.259 1287.47 848.064C1286.14 844.857 1283.92 841.998 1281.13 839.945C1281.17 839.915 1281.2 839.878 1281.23 839.848C1286.16 835.892 1294.07 837.978 1297.99 842.932C1301.92 847.885 1302.59 854.703 1301.92 860.985C1300.89 870.544 1296.87 880.026 1289.6 886.321C1284.17 891.032 1276.79 893.669 1269.69 893.173C1269.33 890.223 1270.65 887.286 1272.48 884.949Z" fill="#EBAE90"/>
<path d="M1255.74 868.166L1267.19 871.895C1271.48 871.872 1273.89 868.234 1275.14 864.136C1276.4 860.037 1276.09 855.649 1276.41 851.373C1276.73 847.145 1277.87 842.639 1281.13 839.943C1283.92 841.996 1286.14 844.855 1287.47 848.062C1289.63 853.257 1289.57 859.232 1287.85 864.586C1286.12 869.941 1282.82 874.7 1278.8 878.634C1276.67 880.718 1274.32 882.602 1272.48 884.947C1270.65 887.285 1269.33 890.221 1269.69 893.169C1267.31 893.002 1264.95 892.482 1262.71 891.565C1253.81 887.923 1253.15 877.423 1255.74 868.166Z" fill="#CD8174"/>
<path d="M1237.41 862.341L1248.86 866.07C1253.15 866.047 1255.55 862.409 1256.81 858.311C1258.07 854.212 1257.76 849.824 1258.08 845.548C1258.4 841.272 1259.56 836.705 1262.9 834.021C1267.83 830.065 1275.74 832.151 1279.66 837.105C1283.58 842.058 1284.26 848.876 1283.58 855.158C1282.55 864.717 1278.54 874.199 1271.27 880.495C1264 886.791 1253.27 889.385 1244.38 885.742C1235.48 882.098 1234.82 871.598 1237.41 862.341Z" fill="#EBAE90"/>
<path d="M1194.13 623.018C1197 619.679 1201.74 618.261 1206.1 618.884C1210.46 619.507 1214.41 621.981 1217.39 625.226C1222.37 630.656 1224.75 638.633 1222.66 645.699C1220.57 652.765 1213.65 658.364 1206.28 658.082C1212.01 664.472 1212.65 675.608 1206.62 681.713C1201.59 686.797 1193.45 688.215 1186.72 685.807C1179.58 683.251 1174.08 676.583 1172.93 669.085C1169.01 673.605 1161.74 674.03 1157.18 670.156C1152.62 666.281 1151.96 658.63 1155.79 654.035C1148.75 654.363 1141.71 650.005 1138.87 643.55C1136.02 637.095 1137.55 628.963 1142.55 623.983C1147.54 619.003 1155.68 617.501 1162.13 620.367C1162.96 612.414 1170.18 606.393 1178.17 606.018C1186.15 605.644 1192.56 615.178 1194.13 623.018Z" fill="#FCFAE6"/>
<path d="M1147.19 573.467C1152.59 576.573 1159.07 578.009 1165.18 576.754C1171.28 575.5 1176.88 571.368 1179.26 565.609C1181.64 559.85 1180.38 552.598 1175.76 548.423C1172 545.034 1166.64 543.957 1161.59 544.153C1157.3 544.32 1153.04 545.31 1149.12 547.054C1146.84 541.525 1143.48 537.367 1137.59 536.315C1131.71 535.263 1125.06 538.454 1123.03 544.079C1121.65 547.933 1122.52 552.378 1124.76 555.805C1127 559.232 1130.48 561.716 1134.23 563.358C1130.01 564.545 1126.91 568.875 1127.14 573.253C1127.36 577.631 1130.9 581.614 1135.22 582.357C1139.54 583.1 1145.51 577.518 1147.19 573.467Z" fill="#FCFAE6"/>
<path d="M1079.55 619.341C1076.31 617.876 1073.23 615.892 1071.06 613.08C1068.89 610.268 1067.72 606.538 1068.55 603.083C1069.62 598.631 1073.93 595.369 1078.48 594.869C1083.03 594.369 1087.63 596.327 1090.99 599.442C1094.34 602.557 1096.56 606.727 1098.06 611.052C1102.76 609.249 1109.71 606.819 1114.11 609.262C1118.25 611.56 1119.85 617.491 1117.43 621.558C1115 625.625 1109.02 627.04 1105.03 624.492C1107.89 628.018 1108.58 633.243 1106.48 637.266C1104.39 641.289 1099.51 643.741 1095.08 642.754C1090.66 641.767 1087.22 637.251 1087.72 632.743C1084.64 636.924 1077.39 636.91 1074.33 632.717C1071.28 628.525 1074.63 620.992 1079.55 619.341Z" fill="#FCFAE6"/>
<path d="M1220.52 498.577C1224.26 494.587 1230.58 493.271 1235.6 495.432C1240.63 497.594 1244.02 503.083 1243.69 508.545C1243.37 514.007 1239.36 519.059 1234.12 520.614C1237.43 523.632 1238.75 530.005 1236.15 533.651C1233.55 537.297 1228.1 538.546 1224.17 536.398C1225.12 539.978 1223.89 544.344 1221.21 546.904C1218.53 549.464 1214.16 550.19 1210.95 548.348C1207.74 546.506 1206.17 542.094 1207.78 538.758C1203.48 537.243 1200.04 533.084 1199.9 528.522C1199.76 523.96 1202.64 519.451 1206.85 517.67C1202.54 514.054 1201.78 507.032 1204.71 502.229C1207.64 497.426 1215.33 496.399 1220.52 498.577Z" fill="#FCFAE6"/>
<mask id="mask0_165_2" style="mask-type:luminance" maskUnits="userSpaceOnUse" x="0" y="301" width="287" height="779">
<path d="M286.985 301.193H0V1080H286.985V301.193Z" fill="white"/>
</mask>
<g mask="url(#mask0_165_2)">
<path d="M196.889 1079.97H-275.053V433.309C-275.053 415.932 -260.966 401.845 -243.589 401.845H165.425C182.802 401.845 196.889 415.932 196.889 433.309V1079.97Z" fill="#423117"/>
<path d="M-261.942 1080H183.78V786.665C183.78 770.736 170.867 757.823 154.938 757.823H-233.1C-249.029 757.823 -261.942 770.736 -261.942 786.665V1080Z" fill="#677446"/>
<path d="M154.938 414.955H-233.1C-249.029 414.955 -261.942 427.868 -261.942 443.797V715.871C-261.942 731.8 -249.029 744.713 -233.1 744.713H154.938C170.867 744.713 183.78 731.8 183.78 715.871V443.797C183.78 427.868 170.867 414.955 154.938 414.955Z" fill="#677446"/>
<path d="M154.938 757.823H138.441V1080H183.78V786.665C183.78 770.736 170.867 757.823 154.938 757.823Z" fill="#5C6E43"/>
<path d="M154.938 414.955H138.441V684.459C138.441 700.388 125.528 713.301 109.599 713.301H-261.942V715.871C-261.942 731.8 -249.029 744.713 -233.1 744.713H154.938C170.867 744.713 183.78 731.8 183.78 715.871V443.797C183.78 427.868 170.867 414.955 154.938 414.955Z" fill="#5C6E43"/>
</g>
<path d="M1674.07 100.822H1527.06C1511.87 100.822 1499.56 113.135 1499.56 128.324C1499.56 143.513 1511.87 155.826 1527.06 155.826H1674.07C1689.26 155.826 1701.57 143.513 1701.57 128.324C1701.57 113.135 1689.26 100.822 1674.07 100.822Z" fill="#F7E7C4"/>
</g>
<defs>
<clipPath id="clip0_165_2">
<rect width="1920" height="1080" fill="white"/>
</clipPath>
</defs>
</svg>
